<?xml version="1.0" standalone="no"?>
<!DOCTYPE svg PUBLIC "-//W3C//DTD SVG 20010904//EN"
 "http://www.w3.org/TR/2001/REC-SVG-20010904/DTD/svg10.dtd">
<svg version="1.0" xmlns="http://www.w3.org/2000/svg"
 width="1051.000000pt" height="1051.000000pt" viewBox="0 0 1051.000000 1051.000000"
 preserveAspectRatio="xMidYMid meet">
<metadata>
Created by potrace 1.16, written by Peter Selinger 2001-2019
</metadata>
<g transform="translate(0.000000,1051.000000) scale(0.100000,-0.100000)"
fill="#000000" stroke="none">
<path d="M5402 8748 c2 -10 -17 -12 -82 -10 -74 4 -94 0 -149 -22 -68 -27 -91
-32 -91 -17 0 10 -48 2 -56 -10 -3 -5 0 -9 5 -9 6 0 11 -4 11 -10 0 -5 -7 -10
-15 -10 -8 0 -15 7 -15 15 0 8 -6 15 -12 15 -35 -1 -153 -21 -162 -29 -6 -4
-42 -9 -80 -10 -38 -1 -78 -7 -88 -12 -11 -6 -29 -8 -41 -5 -30 8 -160 -22
-170 -39 -4 -8 -15 -15 -22 -15 -8 0 -15 -5 -15 -10 0 -6 -8 -13 -17 -17 -10
-3 -25 -12 -33 -18 -8 -7 -42 -20 -75 -30 -33 -9 -67 -23 -77 -32 -9 -8 -25
-14 -35 -12 -24 3 -45 -5 -125 -46 -37 -19 -76 -35 -88 -35 -11 0 -29 -9 -40
-20 -11 -11 -34 -23 -50 -27 -19 -3 -30 -12 -30 -22 0 -20 -37 -54 -50 -46 -6
3 -7 -1 -4 -9 4 -10 1 -16 -9 -16 -9 0 -29 -11 -45 -25 -17 -14 -37 -25 -46
-25 -8 0 -23 -11 -32 -25 -14 -21 -19 -23 -32 -13 -13 11 -15 10 -9 -5 5 -13
0 -21 -18 -29 -18 -8 -24 -17 -20 -29 4 -10 2 -26 -3 -36 -6 -11 -6 -22 0 -32
6 -11 6 -26 -1 -43 -9 -23 -17 -28 -44 -28 -44 0 -48 -5 -29 -42 15 -32 8 -62
-17 -64 -40 -5 -43 -7 -16 -13 27 -6 30 -10 28 -41 -1 -19 -6 -36 -12 -38 -6
-2 -9 -8 -6 -12 3 -5 -9 -17 -27 -26 -18 -9 -41 -25 -50 -34 -15 -16 -15 -20
-3 -30 14 -12 0 -30 -68 -84 -14 -11 -23 -26 -20 -33 4 -10 9 -10 18 -3 9 7
16 6 24 -4 10 -12 9 -20 -4 -39 -20 -31 -3 -47 24 -23 24 22 44 21 32 -1 -9
-17 -51 -130 -51 -137 0 -2 9 -2 20 1 25 7 27 -19 3 -38 -13 -11 -17 -11 -20
-1 -10 28 -39 10 -34 -22 1 -4 -6 -14 -15 -21 -11 -8 -18 -27 -18 -54 -1 -42
16 -52 22 -13 2 12 7 22 12 22 14 0 5 -173 -12 -205 -33 -65 -54 -100 -70
-119 -10 -11 -18 -25 -18 -31 0 -15 33 -16 42 -1 14 21 20 -4 9 -35 -6 -18
-11 -47 -11 -65 0 -18 -4 -35 -9 -38 -10 -7 -20 -53 -13 -61 3 -3 16 2 28 10
l23 15 -5 -107 c-4 -81 -10 -116 -26 -147 -17 -34 -21 -60 -22 -159 l-1 -119
-52 -20 c-75 -28 -115 -79 -154 -197 -44 -131 -50 -252 -20 -373 22 -86 112
-308 156 -384 48 -82 123 -240 130 -274 13 -59 33 -87 80 -110 39 -19 55 -21
115 -15 l69 7 6 -29 c58 -290 123 -528 187 -681 102 -246 114 -336 83 -627
-27 -258 -108 -823 -122 -863 -4 -9 -19 -11 -55 -6 -33 5 -85 1 -147 -11 -53
-9 -120 -22 -150 -27 -57 -11 -89 -36 -118 -93 -22 -43 -72 -104 -95 -116 -21
-11 -100 -32 -162 -43 -34 -6 -153 -58 -181 -78 -5 -4 -33 -25 -60 -45 -83
-62 -73 -58 -235 -98 -102 -25 -191 -54 -240 -80 -25 -13 -76 -40 -115 -59
-38 -20 -90 -47 -115 -60 -25 -14 -74 -38 -110 -54 -36 -16 -86 -39 -112 -51
-26 -11 -52 -21 -58 -21 -5 0 -33 -11 -62 -24 -29 -13 -89 -36 -133 -51 -45
-14 -87 -30 -95 -35 -28 -18 285 -314 540 -511 818 -634 1759 -1003 2787
-1094 220 -19 676 -19 896 0 1095 97 2103 515 2948 1224 117 98 309 280 309
293 0 23 -229 114 -405 162 -49 13 -121 36 -160 50 -38 15 -115 38 -170 52
-178 46 -306 97 -405 161 -58 37 -253 114 -464 183 -68 21 -105 42 -156 86
-48 42 -185 114 -235 124 -110 21 -113 23 -222 150 -87 102 -109 123 -157 150
-43 25 -135 45 -147 33 -6 -6 -7 -46 -3 -103 6 -75 11 -97 30 -120 13 -15 21
-30 17 -34 -3 -3 -1 -6 5 -6 7 0 20 -17 28 -37 9 -21 24 -51 32 -68 11 -20 16
-56 16 -110 -1 -160 -74 -295 -254 -475 -146 -146 -319 -261 -537 -355 -59
-26 -123 -54 -141 -62 -46 -20 -181 -54 -206 -52 -12 1 -28 -1 -36 -4 -8 -3
-37 -8 -65 -12 -71 -9 -143 -22 -190 -34 -22 -5 -60 -15 -85 -21 -25 -6 -67
-19 -95 -27 -27 -9 -63 -17 -80 -19 -16 -1 -50 -7 -75 -12 -24 -6 -59 -8 -78
-5 -22 4 -37 1 -42 -7 -12 -20 -208 37 -222 65 -6 11 -20 28 -31 37 -20 15
-20 20 -9 52 9 25 10 41 3 55 -14 26 -14 34 0 25 8 -5 10 1 7 20 -4 21 1 32
26 51 20 15 34 21 40 15 6 -6 23 -10 38 -10 15 0 28 -4 28 -10 0 -5 6 -10 14
-10 8 0 21 -6 29 -14 12 -13 17 -13 38 2 13 9 33 15 43 13 15 -2 18 2 13 18
-5 20 -1 21 54 21 59 0 78 14 39 28 -14 5 -17 11 -10 22 7 10 10 11 10 3 0
-21 16 -14 28 12 7 15 17 23 26 19 19 -7 96 45 96 65 0 9 5 22 11 28 8 8 8 13
0 17 -6 4 -11 25 -11 46 0 30 -5 40 -20 45 -15 5 -20 15 -20 41 0 27 -4 34
-19 34 -25 0 -36 17 -21 34 6 8 8 26 4 40 -5 20 -2 26 10 26 9 0 16 4 16 9 0
5 2 16 5 23 4 9 -5 20 -20 28 -14 7 -25 16 -25 20 0 3 19 15 42 25 24 10 52
27 63 38 11 10 30 23 43 28 12 5 25 17 28 26 3 10 9 25 14 34 14 26 -17 100
-60 144 -44 45 -60 80 -60 130 0 24 -5 35 -18 39 -26 9 -28 111 -5 190 15 50
23 61 51 73 18 7 36 21 39 29 3 9 17 20 30 25 28 10 21 33 -8 24 -12 -4 -19
-2 -19 7 0 25 148 48 415 63 55 3 133 11 174 17 62 9 79 16 106 44 18 18 51
38 74 45 68 20 47 39 -44 39 -30 0 -57 -5 -60 -10 -4 -6 -11 -7 -17 -4 -6 4
-5 9 3 15 7 4 10 11 6 15 -3 4 -13 1 -21 -5 -18 -15 -232 1 -249 18 -5 5 -23
7 -38 4 -19 -3 -34 0 -44 11 -9 9 -21 14 -26 10 -5 -3 -26 8 -47 24 -20 16
-50 36 -67 45 -16 8 -41 27 -54 41 -13 14 -38 30 -55 36 -28 10 -76 67 -76 91
0 5 -5 18 -12 29 -10 16 -8 27 10 65 26 53 27 67 8 63 -17 -3 -18 1 -9 43 3
17 12 33 19 36 31 12 25 63 -7 63 -10 0 -19 7 -19 15 0 8 -5 15 -11 15 -6 0
-8 8 -4 19 4 13 0 23 -12 30 -10 6 -12 11 -5 11 6 0 20 8 30 18 27 27 208 40
251 17 17 -8 38 -15 47 -15 10 0 26 -8 36 -17 14 -13 23 -14 36 -7 9 6 39 11
66 13 28 1 53 4 57 6 3 3 9 23 13 45 5 35 10 40 33 40 l26 0 -21 23 c-12 13
-22 33 -22 44 0 26 27 49 52 45 10 -2 25 4 34 12 11 11 34 16 76 16 50 0 65
-4 91 -26 20 -17 37 -24 53 -20 12 3 38 -1 58 -9 61 -26 83 -20 90 21 8 42 -4
61 -54 82 -39 16 -80 50 -80 66 0 6 -16 22 -36 36 l-36 24 -18 -22 c-25 -30
-36 -28 -44 9 -3 19 -10 28 -17 23 -6 -3 -29 -1 -51 7 -28 9 -38 17 -35 28 13
45 12 46 -22 47 -24 0 -36 6 -41 18 -5 15 -8 16 -18 4 -12 -15 -82 -13 -82 3
0 5 9 18 21 30 19 19 20 22 4 39 -21 23 -11 43 17 34 12 -3 34 2 54 12 42 23
45 55 7 89 -33 28 -41 30 -62 11 -9 -8 -33 -21 -54 -30 -36 -14 -39 -14 -57 4
-24 24 -27 95 -5 124 8 11 15 27 15 37 0 17 19 29 45 29 19 0 83 42 90 58 3 8
-6 27 -19 42 -22 27 -46 119 -46 180 0 36 41 152 70 200 31 50 41 75 47 117 3
27 15 67 25 89 13 29 24 92 34 200 9 88 18 180 21 207 4 36 0 59 -17 93 -11
26 -20 56 -19 68 2 25 -7 51 -33 88 -18 26 -39 152 -35 208 2 19 -2 24 -15 22
-24 -4 -23 23 2 48 43 43 15 68 -50 45 -47 -17 -50 -11 -13 27 22 23 24 30 13
43 -16 19 -29 19 -52 -2 -10 -9 -18 -11 -18 -5 0 6 5 14 10 17 7 4 7 12 0 25
-5 10 -10 27 -10 38 0 10 -9 27 -20 37 -14 13 -18 25 -13 49 12 65 36 86 47
41 5 -18 13 -25 30 -25 14 0 26 5 28 12 2 6 29 12 62 14 57 3 58 2 52 -21 -8
-30 5 -39 30 -20 11 8 14 14 7 15 -22 0 -16 58 7 65 26 8 40 -1 40 -26 0 -13
7 -19 25 -20 14 -1 31 -2 38 -3 6 -1 18 2 24 7 18 13 43 1 43 -21 0 -27 19
-40 65 -44 33 -2 41 -7 43 -26 6 -42 22 -11 22 42 0 42 5 57 23 74 13 12 29
22 36 22 8 0 11 6 7 15 -3 8 -1 15 4 15 6 0 10 -4 10 -10 0 -5 13 -10 29 -10
23 0 31 6 41 31 10 24 15 28 22 16 11 -21 -2 -77 -18 -77 -7 0 -19 -12 -26
-27 -7 -16 -30 -36 -51 -46 -54 -25 -38 -41 32 -32 58 7 91 27 91 54 0 25 30
62 48 60 32 -3 35 1 17 21 -10 11 -14 20 -8 20 6 0 13 30 16 66 7 74 28 109
61 100 30 -8 76 21 76 48 0 21 34 49 64 52 6 0 19 2 30 2 13 2 17 8 13 23 -3
12 2 28 13 39 20 20 30 16 30 -10 0 -10 6 -23 14 -29 17 -14 39 9 30 33 -3 9
-2 16 2 16 12 0 34 -49 34 -77 0 -28 19 -31 22 -3 0 11 1 26 2 33 1 13 44 29
58 21 4 -3 8 -19 8 -35 0 -22 7 -32 25 -41 14 -6 25 -20 25 -30 0 -10 7 -32
15 -49 9 -16 15 -35 14 -42 -3 -27 2 -36 24 -39 18 -2 21 -8 19 -35 -3 -28 1
-35 22 -43 22 -8 25 -14 20 -35 -4 -17 -1 -32 9 -43 8 -9 18 -27 22 -40 5 -17
11 -21 27 -16 18 5 20 3 14 -20 -4 -15 -2 -26 4 -26 5 0 10 -6 10 -14 0 -8 3
-16 8 -18 4 -1 25 -30 47 -63 38 -59 70 -99 142 -180 36 -41 165 -225 238
-341 22 -34 49 -73 61 -86 51 -58 74 -201 55 -340 -20 -143 -74 -405 -91 -443
-24 -51 -92 -277 -86 -282 9 -9 84 77 92 104 3 12 12 24 20 27 8 3 14 13 14
23 0 10 7 27 15 37 8 11 15 27 15 35 0 9 6 28 14 42 7 14 25 66 40 115 15 49
33 103 42 120 26 52 81 107 111 110 16 2 66 9 113 16 70 11 85 17 89 33 8 44
49 91 91 105 23 7 47 21 53 30 7 9 20 19 30 23 12 5 16 13 12 26 -4 15 1 20
26 25 19 4 33 13 36 26 3 11 16 23 29 26 30 8 30 18 2 32 -13 6 -17 11 -10 11
17 1 15 31 -3 31 -11 0 -15 11 -15 43 0 49 4 56 45 79 36 20 44 38 16 38 -12
0 -21 4 -21 8 0 22 42 44 94 49 53 6 73 22 46 38 -15 9 7 35 30 35 10 0 28 8
40 18 l21 17 -20 27 c-12 14 -21 38 -21 52 0 16 -6 26 -14 26 -24 0 -27 28 -4
32 25 4 37 28 14 28 -10 0 -16 9 -16 24 0 13 -6 26 -12 29 -7 2 -9 8 -5 13 5
5 13 1 18 -9 11 -19 29 -14 29 8 0 8 -8 22 -18 32 -14 13 -18 31 -17 63 1 25
-3 48 -9 52 -7 5 -6 16 5 35 9 15 14 33 12 40 -2 7 1 21 6 32 7 13 8 22 1 26
-6 4 -4 17 5 35 8 16 15 35 15 43 0 7 11 24 24 36 25 23 41 61 26 61 -5 0 -12
-5 -15 -10 -12 -19 -26 0 -15 20 15 28 13 31 -15 24 -19 -5 -25 -2 -25 10 0 9
-6 16 -14 16 -18 0 -29 33 -21 61 5 16 13 20 33 16 15 -3 44 3 67 13 22 11 51
20 64 22 30 4 41 28 12 28 -11 0 -22 -4 -25 -9 -7 -11 -82 -26 -113 -22 -11 1
-24 -3 -28 -8 -3 -6 -10 -11 -15 -11 -8 0 -50 79 -50 95 0 5 -12 27 -27 48
l-27 39 27 24 c22 19 26 29 21 50 -8 31 -28 40 -59 26 -18 -9 -27 -7 -44 10
-25 22 -23 45 3 40 21 -4 22 46 1 54 -10 4 -14 16 -11 39 4 33 1 40 -86 167
-22 33 -22 42 -3 58 21 17 19 25 -7 27 -21 2 -68 47 -68 66 0 4 9 7 20 7 11 0
20 -5 20 -12 0 -6 3 -9 6 -5 9 9 -91 137 -107 137 -19 0 -8 -40 17 -59 24 -19
26 -41 4 -41 -5 0 -27 28 -49 63 -37 56 -39 63 -24 75 11 7 12 12 4 12 -7 0
-10 3 -8 8 3 4 -6 8 -19 8 -37 3 -56 23 -49 54 5 21 -1 32 -25 53 -23 21 -30
23 -30 11 0 -23 -24 -11 -28 14 -2 12 -7 22 -12 22 -5 0 -11 9 -15 19 -3 10
-16 22 -28 25 -12 3 -53 35 -92 71 -38 35 -75 64 -81 65 -6 0 -29 16 -51 35
-23 19 -45 35 -50 35 -4 0 -13 10 -18 22 -6 13 -22 29 -37 36 -16 7 -28 17
-28 23 0 5 -6 9 -14 9 -8 0 -17 8 -20 18 -5 14 -99 72 -126 77 -3 0 -15 6 -28
13 -13 7 -64 26 -115 43 -51 16 -104 36 -119 45 -15 8 -74 19 -134 24 -125 11
-253 -8 -291 -43 l-23 -20 0 22 c0 17 -4 21 -15 17 -8 -3 -22 -9 -30 -12 -9
-4 -16 2 -20 18 -4 15 -25 34 -61 53 -31 17 -63 38 -71 48 -9 9 -22 17 -30 17
-7 0 -13 4 -13 9 0 4 -20 16 -45 26 -25 9 -68 34 -95 56 -60 48 -96 58 -114
34 -7 -10 -18 -15 -24 -11 -18 11 -14 26 6 26 16 1 16 1 -1 11 -13 7 -22 7
-31 0 -13 -11 -146 6 -156 19 -3 4 -65 10 -138 14 -105 5 -132 4 -130 -6z
m-416 -2586 c6 -4 15 -18 19 -30 5 -17 12 -22 26 -19 13 4 25 -3 35 -18 22
-33 9 -48 -32 -40 -26 4 -34 2 -34 -8 0 -20 22 -27 79 -27 26 0 55 -6 65 -13
17 -12 16 -14 -14 -14 -37 0 -69 -33 -70 -70 0 -13 -4 -23 -8 -23 -20 0 -132
43 -132 50 0 17 38 20 72 6 20 -9 38 -12 42 -9 7 7 -52 53 -68 53 -22 1 -56
38 -50 54 3 9 10 16 15 16 18 0 8 28 -11 33 -11 3 -20 14 -20 24 0 16 22 30
70 41 3 1 10 -2 16 -6z m20 -318 c37 -38 43 -76 19 -108 -16 -21 -77 -35 -124
-28 l-31 4 34 38 c24 27 37 52 41 84 4 25 12 46 17 46 6 0 26 -16 44 -36z"/>
<path d="M350 7153 c-171 -449 -298 -983 -326 -1368 -3 -44 -7 -86 -10 -93 -2
-7 0 -11 5 -8 5 3 12 -1 15 -9 6 -18 52 -11 73 11 18 18 16 24 -8 24 -16 0
-19 4 -14 18 15 33 18 72 5 72 -7 0 -5 6 5 16 10 11 14 25 11 40 -7 26 10 36
37 22 13 -6 29 -6 48 2 30 13 38 35 17 43 -10 4 -10 6 0 6 10 1 11 23 6 96 -6
81 -4 98 10 114 9 10 14 25 10 35 -3 9 -1 16 5 16 6 0 11 -6 11 -12 0 -7 7 -2
16 10 10 14 25 22 45 22 33 0 39 19 9 27 -23 6 -25 14 -8 31 13 13 3 16 -34
13 -10 -1 -18 1 -18 5 0 18 26 80 37 86 6 5 9 17 6 29 -4 16 -11 19 -29 15
-13 -4 -24 -5 -24 -3 0 10 32 67 40 72 5 3 7 19 3 35 -5 29 -4 30 31 30 25 0
36 -4 36 -15 0 -9 10 -4 30 15 37 36 31 60 -16 60 -24 0 -34 5 -34 15 0 8 -7
15 -15 15 -9 0 -12 6 -9 15 7 18 34 20 35 3 0 -7 6 3 13 22 7 19 9 39 4 44 -4
6 -8 22 -8 37 0 15 -6 29 -12 32 -7 2 -9 8 -5 13 4 5 12 2 17 -5 7 -12 11 -11
25 2 19 19 11 39 -13 35 -12 -2 -18 5 -20 25 -4 31 21 38 37 10 5 -10 13 -14
18 -10 4 5 0 14 -10 21 -21 16 -23 48 -2 40 8 -4 15 -1 15 6 0 6 -9 14 -20 17
-22 6 -28 43 -6 43 22 0 28 43 9 58 -22 16 -30 15 -37 -3 -4 -10 2 -19 17 -25
16 -6 17 -9 5 -9 -9 -1 -18 -7 -20 -13 -3 -8 -9 -5 -16 8 -12 23 3 74 23 74
15 0 45 80 45 118 0 20 8 39 20 49 27 23 25 43 -4 43 -21 0 -29 -14 -76 -137z"/>
<path d="M6157 6223 c-30 -15 -28 -33 4 -33 23 0 25 -25 4 -46 -16 -17 -20
-44 -7 -44 5 0 15 11 22 25 7 13 17 22 21 19 5 -3 19 2 33 11 15 10 26 12 30
6 4 -5 -3 -15 -14 -21 -11 -6 -20 -15 -20 -20 0 -13 86 -13 110 0 14 8 25 7
40 -2 18 -11 23 -10 31 5 6 9 17 17 26 17 9 0 24 7 34 16 9 8 28 14 40 12 21
-3 22 -4 6 -20 -9 -9 -17 -19 -17 -22 0 -8 48 2 77 16 18 9 26 6 46 -15 16
-18 34 -26 53 -26 16 1 47 -5 69 -12 22 -7 61 -12 88 -12 26 0 47 -4 47 -8 0
-4 17 -11 38 -14 55 -9 94 -25 122 -50 24 -22 97 -51 106 -43 6 6 -19 58 -28
58 -5 0 -8 5 -8 11 0 7 -10 22 -22 34 -13 12 -30 35 -39 51 -10 20 -38 41 -80
62 -72 36 -104 42 -69 14 14 -11 20 -24 16 -31 -6 -9 -11 -9 -21 -1 -8 7 -19
9 -25 5 -14 -9 -68 12 -95 36 -17 15 -43 19 -158 22 -75 1 -131 0 -125 -4 7
-5 9 -12 4 -16 -4 -4 -13 0 -20 10 -14 19 -36 23 -36 7 0 -5 -6 -10 -14 -10
-8 0 -18 -9 -21 -20 -3 -11 -11 -20 -16 -20 -12 0 -7 21 9 38 19 21 3 35 -32
27 -32 -7 -112 -8 -156 -1 -14 2 -37 -3 -53 -11z"/>
<path d="M6260 5773 c-14 -2 -39 -11 -57 -19 -17 -8 -35 -14 -40 -14 -4 0 -25
-15 -46 -33 -30 -25 -44 -49 -62 -102 -13 -38 -21 -74 -17 -80 3 -5 19 -27 36
-48 18 -22 30 -48 28 -60 -2 -17 6 -26 40 -39 24 -10 51 -18 61 -18 10 0 27
-5 38 -11 16 -8 25 -7 38 5 19 17 62 20 126 8 22 -4 48 -6 58 -4 24 5 21 31
-5 41 -22 8 -22 9 11 27 54 30 90 68 97 103 4 17 10 34 15 37 13 8 45 -12 95
-62 35 -34 44 -48 35 -57 -18 -18 -13 -27 18 -27 16 0 31 6 34 14 4 11 14 12
41 6 20 -4 36 -4 36 1 0 18 -24 59 -34 59 -7 0 -36 16 -66 35 -30 20 -89 52
-130 72 -41 19 -89 46 -107 59 -17 13 -38 24 -47 24 -24 0 -30 21 -7 27 34 9
24 20 -25 28 -25 3 -47 12 -50 19 -4 12 -66 17 -114 9z"/>
<path d="M7790 5263 c0 -5 14 -17 30 -28 29 -19 30 -23 30 -93 0 -58 -4 -80
-23 -110 -13 -20 -36 -68 -52 -107 -16 -38 -41 -84 -56 -102 -15 -17 -30 -42
-34 -55 -9 -30 -36 -92 -44 -98 -3 -3 -14 -21 -24 -40 l-19 -35 21 19 c12 11
31 36 43 55 12 20 38 59 60 87 21 28 38 56 38 62 0 7 5 12 10 12 6 0 10 8 10
18 0 10 7 27 15 39 8 11 30 60 50 108 62 155 42 273 -47 275 -5 0 -8 -3 -8 -7z"/>
<path d="M5663 4750 c-13 -5 -23 -16 -23 -23 0 -16 56 -69 83 -80 9 -3 20 -15
24 -24 4 -10 17 -29 29 -42 l22 -24 18 34 c24 45 28 76 13 111 -19 47 -106 72
-166 48z"/>
<path d="M7059 4193 c-18 -21 -99 -159 -99 -168 0 -3 -13 -26 -30 -50 -35 -50
-40 -81 -12 -66 10 5 23 20 30 33 18 32 139 111 163 106 5 -2 16 15 24 37 14
39 14 40 -18 75 -17 19 -35 38 -38 43 -3 4 -12 -1 -20 -10z"/>
</g>
</svg>
